# xmcd
#
# Track frame offsets:
#	150
#	15075
#	20550
#	30525
#	40050
#	45825
#	55200
#	64275
#	72840
#	81255
#	89333
#	99646
#	113049
#	120114
#	130517
#	135535
#	142495
#	150198
#
# Disc length: 2127 seconds
#
# Revision: 1
# Processed by: cddbd v1.5.2PL0 Copyright (c) Steve Scherf et al.
# Submitted via: audiograbber 1.83.01
#
DISCID=dc084d12
DTITLE=Eric Weissberg and Steve Mandell - Sound Track From Dueling Banjos
DYEAR=1972
DGENRE=Bluegrass
TTITLE0=Dueling Banjos
TTITLE1=Little Maggie
TTITLE2=Shuckin' The Corn
TTITLE3=Pony Express
TTITLE4=Old Joe Clark
TTITLE5=Eight More Miles To Louisville
TTITLE6=Farewell Blues
TTITLE7=Earl's Breakdown
TTITLE8=End Of A Dream
TTITLE9=Buffalo Gals
TTITLE10=Ruben's Train
TTITLE11=Riding The Waves
TTITLE12=Fire On The Mountain
TTITLE13=Eighth Of January
TTITLE14=Bugle Call Rag
TTITLE15=Hard Ain't It Hard
TTITLE16=Mountain Dew
TTITLE17=Rawhide
EXTD=
EXTT0=
EXTT1=
EXTT2=
EXTT3=
EXTT4=
EXTT5=
EXTT6=
EXTT7=
EXTT8=
EXTT9=
EXTT10=
EXTT11=
EXTT12=
EXTT13=
EXTT14=
EXTT15=
EXTT16=
EXTT17=
PLAYORDER=
